<svg width="20" height="20" viewBox="0 0 20 20" fill="none" xmlns="http://www.w3.org/2000/svg">
<g opacity="0.5">
<path d="M9.99935 18.3332C5.39685 18.3332 1.66602 14.6023 1.66602 9.99984C1.66602 5.39734 5.39685 1.6665 9.99935 1.6665C14.6018 1.6665 18.3327 5.39734 18.3327 9.99984C18.3327 14.6023 14.6018 18.3332 9.99935 18.3332ZM7.40768 10.9748L7.41852 10.969L8.14352 13.3607C8.23685 13.6198 8.36518 13.6665 8.52102 13.6448C8.67768 13.624 8.76018 13.5398 8.86268 13.4415L9.85268 12.4848L11.9777 14.0582C12.366 14.2723 12.6452 14.1615 12.7418 13.6982L14.1227 7.17984C14.2752 6.57317 14.0085 6.32984 13.5377 6.52317L5.42685 9.6565C4.87352 9.87817 4.87685 10.1882 5.32685 10.3257L7.40768 10.9757V10.9748Z" fill="white"/>
</g>
</svg>
