<svg width="87" height="14" viewBox="0 0 87 14" fill="none" xmlns="http://www.w3.org/2000/svg">
<path d="M4.392 2.32442H0.216V0.416422H10.926V2.32442H6.732V13.2324H4.392V2.32442ZM12.5305 0.416422H14.8525V13.2324H12.5305V0.416422ZM25.9082 13.2324L19.9502 7.23842V13.2324H17.6282V0.416422H19.9502V6.15842L25.6742 0.416422H28.4642L22.2362 6.57242L28.7522 13.2324H25.9082ZM32.6225 2.32442H28.4465V0.416422H39.1565V2.32442H34.9625V13.2324H32.6225V2.32442ZM47.693 10.2264H41.429L40.133 13.2324H37.793L43.589 0.416422H45.479L51.293 13.2324H48.971L47.693 10.2264ZM46.919 8.42642L44.561 2.93642L42.203 8.42642H46.919ZM54.1029 2.32442H49.9269V0.416422H60.6369V2.32442H56.4429V13.2324H54.1029V2.32442ZM67.1736 13.3944C65.9376 13.3944 64.8576 13.1304 63.9336 12.6024C63.0216 12.0624 62.3136 11.3004 61.8096 10.3164C61.3176 9.32042 61.0716 8.15042 61.0716 6.80642C61.0716 5.47442 61.3176 4.31642 61.8096 3.33242C62.3016 2.33642 63.0036 1.57442 63.9156 1.04642C64.8396 0.518421 65.9256 0.254422 67.1736 0.254422C68.4216 0.254422 69.5016 0.518421 70.4136 1.04642C71.3376 1.57442 72.0396 2.33642 72.5196 3.33242C73.0116 4.31642 73.2576 5.47442 73.2576 6.80642C73.2576 8.15042 73.0116 9.32042 72.5196 10.3164C72.0276 11.3004 71.3256 12.0624 70.4136 12.6024C69.5016 13.1304 68.4216 13.3944 67.1736 13.3944ZM67.1736 11.5404C68.3616 11.5404 69.2856 11.1324 69.9456 10.3164C70.6056 9.50042 70.9356 8.33042 70.9356 6.80642C70.9356 5.29442 70.6056 4.13642 69.9456 3.33242C69.2856 2.51642 68.3616 2.10842 67.1736 2.10842C65.9856 2.10842 65.0616 2.51042 64.4016 3.31442C63.7416 4.11842 63.4116 5.28242 63.4116 6.80642C63.4116 8.33042 63.7416 9.50042 64.4016 10.3164C65.0616 11.1324 65.9856 11.5404 67.1736 11.5404ZM86.184 13.2324H83.736L82.098 8.96642C81.954 8.57042 81.732 8.29442 81.432 8.13842C81.132 7.98242 80.742 7.90442 80.262 7.90442H77.94V13.2324H75.636V0.416422H81.126C82.578 0.416422 83.682 0.734421 84.438 1.37042C85.194 2.00642 85.572 2.91842 85.572 4.10642C85.572 4.95842 85.344 5.68442 84.888 6.28442C84.444 6.87242 83.808 7.29242 82.98 7.54442C83.736 7.70042 84.282 8.22842 84.618 9.12842L86.184 13.2324ZM80.802 6.10442C81.678 6.10442 82.326 5.94242 82.746 5.61842C83.166 5.29442 83.376 4.80242 83.376 4.14242C83.376 3.49442 83.166 3.01442 82.746 2.70242C82.338 2.37842 81.69 2.21642 80.802 2.21642H77.904V6.10442H80.802Z" fill="white"/>
</svg>
